<?xml version="1.0" encoding="UTF-8" standalone="no"?>
<!-- Generator: Adobe Illustrator 16.0.0, SVG Export Plug-In . SVG Version: 6.00 Build 0)  -->

<svg
   xmlns:dc="http://purl.org/dc/elements/1.1/"
   xmlns:cc="http://creativecommons.org/ns#"
   xmlns:rdf="http://www.w3.org/1999/02/22-rdf-syntax-ns#"
   xmlns:svg="http://www.w3.org/2000/svg"
   xmlns="http://www.w3.org/2000/svg"
   xmlns:sodipodi="http://sodipodi.sourceforge.net/DTD/sodipodi-0.dtd"
   xmlns:inkscape="http://www.inkscape.org/namespaces/inkscape"
   version="1.1"
   id="Capa_1"
   x="0px"
   y="0px"
   width="200"
   height="200"
   viewBox="0 0 200.00001 200.00001"
   xml:space="preserve"
   sodipodi:docname="icon.svg"
   inkscape:version="0.92.3 (2405546, 2018-03-11)"><metadata
   id="metadata933"><rdf:RDF><cc:Work
       rdf:about=""><dc:format>image/svg+xml</dc:format><dc:type
         rdf:resource="http://purl.org/dc/dcmitype/StillImage" /><dc:title></dc:title></cc:Work></rdf:RDF></metadata><defs
   id="defs931" /><sodipodi:namedview
   pagecolor="#ffffff"
   bordercolor="#666666"
   borderopacity="1"
   objecttolerance="10"
   gridtolerance="10"
   guidetolerance="10"
   inkscape:pageopacity="0"
   inkscape:pageshadow="2"
   inkscape:window-width="2556"
   inkscape:window-height="1396"
   id="namedview929"
   showgrid="false"
   inkscape:zoom="2.8404826"
   inkscape:cx="92.595289"
   inkscape:cy="44.696151"
   inkscape:window-x="0"
   inkscape:window-y="20"
   inkscape:window-maximized="1"
   inkscape:current-layer="Capa_1" />

<g
   id="g898"
   transform="translate(0,93.952003)">
</g>
<g
   id="g900"
   transform="translate(0,93.952003)">
</g>
<g
   id="g902"
   transform="translate(0,93.952003)">
</g>
<g
   id="g904"
   transform="translate(0,93.952003)">
</g>
<g
   id="g906"
   transform="translate(0,93.952003)">
</g>
<g
   id="g908"
   transform="translate(0,93.952003)">
</g>
<g
   id="g910"
   transform="translate(0,93.952003)">
</g>
<g
   id="g912"
   transform="translate(0,93.952003)">
</g>
<g
   id="g914"
   transform="translate(0,93.952003)">
</g>
<g
   id="g916"
   transform="translate(0,93.952003)">
</g>
<g
   id="g918"
   transform="translate(0,93.952003)">
</g>
<g
   id="g920"
   transform="translate(0,93.952003)">
</g>
<g
   id="g922"
   transform="translate(0,93.952003)">
</g>
<g
   id="g924"
   transform="translate(0,93.952003)">
</g>
<g
   id="g926"
   transform="translate(0,93.952003)">
</g>
<g
   id="g989"
   transform="translate(-1.2552407,1.2552383)"><g
     transform="matrix(1.318696,0,0,1.318696,31.332704,28.822225)"
     id="g896">
	<path
   inkscape:connector-curvature="0"
   id="path894"
   d="m 53.023,27.568 c 0,-2.25 -0.466,-4.392 -1.266,-6.359 h 6.568 v 15.907 h -5.414 c 0.026,-0.354 0.111,-0.693 0.111,-1.056 V 27.568 Z M 36.061,12.725 c 8.184,0 14.843,6.662 14.843,14.844 v 8.492 c 0,8.182 -6.659,14.843 -14.843,14.843 h -8.492 c -8.184,0 -14.843,-6.662 -14.843,-14.843 v -8.492 c 0,-8.182 6.659,-14.844 14.843,-14.844 z m 6.606,9.168 -14.213,14.221 -7.493,-7.492 -3.749,3.749 11.242,11.236 17.963,-17.971 z M 31.814,53.023 V 63.628 H 42.418 V 51.755 C 40.45,52.558 38.31,53.024 36.06,53.024 H 31.814 Z M 74.233,47.721 H 63.629 v 15.908 h 10.604 z m -26.511,0.578 v 15.33 H 58.326 V 47.721 H 48.299 c -0.19,0.197 -0.381,0.394 -0.577,0.578 z m 58.326,-27.09 v 63.629 c 0,11.666 -9.543,21.21 -21.21,21.21 H 21.209 C 9.543,106.048 0,96.504 0,84.838 V 21.209 C 0,9.543 9.543,0 21.209,0 h 63.628 c 11.668,0 21.211,9.543 21.211,21.209 z M 79.536,13.256 H 45.055 c -2.62,-1.654 -5.69,-2.651 -8.994,-2.651 h -8.492 c -9.329,0 -16.964,7.635 -16.964,16.964 v 8.492 c 0,8.963 7.079,16.295 15.907,16.857 v 39.875 h 21.21 V 76.885 h 10.604 v 15.907 h 21.21 z m -5.303,7.953 H 63.629 v 15.907 h 10.604 z"
   style="fill:#253449;fill-opacity:1" />
</g><path
     sodipodi:nodetypes="csssscsscccccccc"
     inkscape:connector-curvature="0"
     id="path894-5"
     d="m 98.503619,65.155352 -0.044,11.220368 c -0.0423,10.789489 -8.7812,19.573406 -19.573409,19.573406 H 67.68784 c -10.823327,0 -19.379413,-8.083814 -19.666752,-19.573406 L 47.741022,65.177355 c 0.562415,-4.980608 2.076238,-9.264045 4.67862,-12.485713 7.939064,-9.828315 27.460998,-10.095185 37.786927,-3.633444 5.37621,3.364315 8.09422,9.448382 8.29705,16.097154 z M 87.597509,57.692436 68.85488,76.445611 58.97389,66.565942 54.0301,71.509732 68.85488,86.326601 92.542619,62.628316 Z"
     style="fill:#1c9797;fill-opacity:1;stroke-width:1.31869602" /></g></svg>